Land_normalized_precision_landing02_filtered_grf
version=1
nRows=12
nColumns=37
inDegrees=yes
endheader
time		1_ground_force_vx		1_ground_force_vy		1_ground_force_vz		1_ground_force_px		1_ground_force_py		1_ground_force_pz		1_ground_torque_x		1_ground_torque_y		1_ground_torque_z		2_ground_force_vx		2_ground_force_vy		2_ground_force_vz		2_ground_force_px		2_ground_force_py		2_ground_force_pz		2_ground_torque_x		2_ground_torque_y		2_ground_torque_z		3_ground_force_vx		3_ground_force_vy		3_ground_force_vz		3_ground_force_px		3_ground_force_py		3_ground_force_pz		3_ground_torque_x		3_ground_torque_y		3_ground_torque_z		4_ground_force_vx		4_ground_force_vy		4_ground_force_vz		4_ground_force_px		4_ground_force_py		4_ground_force_pz		4_ground_torque_x		4_ground_torque_y		4_ground_torque_z		
1.004500		3.107405		-53.650409		-33.630955		0.076275		0.000000		0.257753		0.015785		-0.272533		-0.170838		-2.807493		-2.408010		2.694379		-0.306800		0.000000		0.392000		-0.192929		0.090360		-0.514980		9.324927		-1.688656		-4.557349		0.381261		1.275667		1.884105		-0.009263		0.001677		0.004527		-5.113861		-0.292220		0.201070		-0.351327		1.268444		1.872244		0.028171		0.001610		-0.001108		
1.007227		1.768575		-74.518938		-51.640357		0.067808		0.000000		0.237323		0.007501		-0.315411		-0.218543		-5.991661		-31.418412		-6.166557		-0.167405		0.000000		0.272482		-0.164893		-0.865564		-0.170120		9.355248		-1.794455		-4.709944		0.381267		1.275655		1.884137		-0.005484		0.001051		0.002761		-5.131026		-0.403415		0.037506		-0.351345		1.268437		1.872316		0.029482		0.002318		-0.000215		
1.009955		-1.131056		-73.907220		-57.492477		0.058112		0.000000		0.212922		-0.003686		-0.241722		-0.188005		-8.436404		-63.315939		-17.304566		-0.174755		0.000000		0.268900		-0.259413		-1.946992		-0.532136		9.459806		-1.880148		-4.846648		0.381267		1.275643		1.884169		-0.002972		0.000591		0.001523		-5.155168		-0.529608		-0.162975		-0.351363		1.268425		1.872394		0.029918		0.003074		0.000946		
1.012682		-5.440014		-36.223837		-40.268404		0.023850		0.000000		0.120923		-0.000717		-0.010063		-0.009166		-8.598106		-85.912787		-27.239741		-0.179219		0.000000		0.267078		-0.271668		-2.714596		-0.860707		9.633027		-1.932869		-4.950110		0.381257		1.275633		1.884203		-0.002116		0.000425		0.001087		-5.191090		-0.660232		-0.370887		-0.351378		1.268417		1.872470		0.029351		0.003732		0.002097		
1.015409		-10.429388		50.009894		8.588650		0.118913		0.000000		0.364038		-0.133833		0.636186		0.106307		-4.917170		-83.220497		-30.775741		-0.185199		0.000000		0.265778		-0.154032		-2.606465		-0.963863		9.844330		-1.952815		-5.016655		0.381240		1.275624		1.884240		-0.002747		0.000545		0.001400		-5.240927		-0.785382		-0.559868		-0.351390		1.268414		1.872543		0.027798		0.004165		0.002969		
1.018136		-14.882626		188.748497		92.413897		0.081717		0.000000		0.278032		-0.121273		1.537005		0.752360		3.760939		-38.507181		-21.814342		-0.207861		0.000000		0.266779		0.080648		-0.881474		-0.492562		10.043422		-1.950209		-5.052572		0.381215		1.275619		1.884281		-0.004322		0.000839		0.002174		-5.300209		-0.894038		-0.711028		-0.351402		1.268420		1.872609		0.025301		0.004267		0.003394		
1.020864		-17.385229		371.998716		205.512538		0.073212		0.000000		0.258157		-0.131035		2.803666		1.548889		17.535994		59.897902		4.884308		-0.140325		0.000000		0.260733		0.554213		1.905472		0.159928		10.174157		-1.940691		-5.068263		0.381185		1.275615		1.884329		-0.006137		0.001170		0.003057		-5.356155		-0.974474		-0.813977		-0.351415		1.268431		1.872668		0.021936		0.003990		0.003333		
1.023591		-16.888943		580.618004		332.665621		0.068423		0.000000		0.247900		-0.131269		4.513683		2.586132		35.108690		213.509971		51.850665		-0.163921		0.000000		0.260949		1.279657		7.782498		1.890053		10.195717		-1.937604		-5.072488		0.381151		1.275613		1.884380		-0.007640		0.001452		0.003801		-5.390044		-1.017372		-0.866035		-0.351433		1.268447		1.872717		0.017859		0.003371		0.002869		
1.026318		-13.417649		789.003768		451.547225		0.064938		0.000000		0.241375		-0.115032		6.768155		3.873359		53.772880		409.980937		117.215367		-0.168669		0.000000		0.259013		2.019685		15.399350		4.402854		10.098280		-1.945936		-5.072209		0.381117		1.275613		1.884434		-0.008587		0.001655		0.004313		-5.383521		-1.020314		-0.871919		-0.351456		1.268460		1.872757		0.013369		0.002534		0.002166		
1.029045		-8.680835		973.777935		539.178104		0.062298		0.000000		0.237293		-0.086592		9.716704		5.379967		70.020458		623.199521		193.881947		-0.170365		0.000000		0.256390		2.724934		24.252991		7.545345		9.905757		-1.960435		-5.074730		0.381084		1.275613		1.884489		-0.009009		0.001783		0.004615		-5.327601		-0.990861		-0.843594		-0.351485		1.268467		1.872787		0.008942		0.001663		0.001416		
1.031773		-6.061161		1121.105328		579.021377		0.060653		0.000000		0.235510		-0.072930		13.492922		6.967723		80.635201		819.728437		270.863031		-0.170612		0.000000		0.252860		3.287413		33.421344		11.043678		9.661947		-1.968417		-5.088302		0.381054		1.275612		1.884543		-0.009032		0.001840		0.004756		-5.227647		-0.943060		-0.796750		-0.351516		1.268462		1.872809		0.005254		0.000948		0.000801		
1.034500		-9.502949		1230.149546		568.145627		0.060338		0.000000		0.236050		-0.138825		17.970775		8.299818		84.165792		969.958419		336.143564		-0.169686		0.000000		0.248165		3.639900		41.947582		14.537128		9.416752		-1.955368		-5.120127		0.381030		1.275610		1.884597		-0.008724		0.001811		0.004743		-5.104643		-0.890746		-0.746317		-0.351548		1.268446		1.872824		0.003066		0.000535		0.000448		
